<svg width="50" height="50" viewBox="0 0 50 50" fill="none" xmlns="http://www.w3.org/2000/svg">
<path d="M35.4167 6.25H10.4167C8.10417 6.25 6.25 8.125 6.25 10.4167V39.5833C6.25 41.875 8.10417 43.75 10.4167 43.75H39.5833C41.875 43.75 43.75 41.875 43.75 39.5833V14.5833L35.4167 6.25ZM25 39.5833C21.5417 39.5833 18.75 36.7917 18.75 33.3333C18.75 29.875 21.5417 27.0833 25 27.0833C28.4583 27.0833 31.25 29.875 31.25 33.3333C31.25 36.7917 28.4583 39.5833 25 39.5833ZM31.25 18.75H10.4167V10.4167H31.25V18.75Z" fill="#4A4A4A"/>
</svg>
