<svg width="27" height="27" viewBox="0 0 27 27" fill="none" xmlns="http://www.w3.org/2000/svg">
<path d="M16.4137 9L13.5 11.9137L10.5863 9L9 10.5863L11.9137 13.5L9 16.4137L10.5863 18L13.5 15.0863L16.4137 18L18 16.4137L15.0863 13.5L18 10.5863L16.4137 9ZM13.5 2.25C7.27875 2.25 2.25 7.27875 2.25 13.5C2.25 19.7213 7.27875 24.75 13.5 24.75C19.7213 24.75 24.75 19.7213 24.75 13.5C24.75 7.27875 19.7213 2.25 13.5 2.25ZM13.5 22.5C8.53875 22.5 4.5 18.4613 4.5 13.5C4.5 8.53875 8.53875 4.5 13.5 4.5C18.4613 4.5 22.5 8.53875 22.5 13.5C22.5 18.4613 18.4613 22.5 13.5 22.5Z" fill="#484848"/>
</svg>
